<?xml version="1.0" encoding="UTF-8" standalone="no"?>
<svg
   version="1.0"
   width="619.21539pt"
   height="464.99997pt"
   viewBox="0 0 619.21539 464.99997"
   preserveAspectRatio="xMidYMid"
   id="svg3"
   xmlns="http://www.w3.org/2000/svg"
   xmlns:svg="http://www.w3.org/2000/svg">
  <defs
     id="defs3" />
  <g
     transform="matrix(0.1,0,0,-0.1,-201.72359,746.99999)"
     fill="#000000"
     stroke="none"
     id="g3">
    <path
       d="m 3056,7454 c -210,-52 -368,-202 -447,-424 -23,-65 -24,-69 -29,-680 -4,-414 -10,-625 -17,-647 -27,-76 -79,-157 -137,-210 -71,-66 -148,-105 -254,-128 -59,-14 -83,-24 -108,-49 -54,-54 -62,-136 -20,-201 25,-38 55,-53 141,-71 103,-21 165,-53 238,-123 63,-59 95,-108 130,-194 22,-51 22,-66 28,-722 5,-640 6,-673 26,-731 37,-112 83,-185 168,-269 133,-132 233,-174 441,-182 143,-6 184,2 234,43 33,28 53,79 52,135 -1,44 -14,72 -50,111 -33,36 -66,46 -188,57 -58,5 -116,17 -135,26 -56,28 -108,86 -131,145 -22,54 -22,64 -28,720 -7,737 -3,698 -75,840 -53,104 -141,207 -233,273 l -43,31 33,24 c 18,14 71,64 118,111 66,67 95,105 128,171 75,152 74,140 76,815 l 1,600 23,51 c 28,61 82,117 137,140 25,11 82,19 152,23 91,6 118,11 140,27 99,73 99,205 0,278 -25,19 -44,21 -170,23 -98,1 -161,-3 -201,-13 z"
       id="path1" />
    <path
       d="m 6825,7456 c -87,-39 -124,-160 -72,-236 43,-64 66,-74 195,-80 157,-9 222,-41 277,-141 l 30,-54 5,-620 c 5,-544 8,-627 23,-678 45,-154 154,-312 279,-403 l 50,-37 -34,-26 c -148,-114 -238,-243 -290,-413 -22,-72 -22,-86 -28,-738 -5,-726 -3,-694 -65,-768 -49,-58 -160,-104 -240,-100 -103,6 -158,-16 -202,-81 -17,-26 -23,-48 -23,-91 0,-71 27,-116 90,-147 38,-20 60,-23 155,-23 219,1 363,57 500,194 90,91 133,168 165,293 19,72 20,113 20,687 0,669 2,691 59,803 66,132 179,217 330,248 40,8 87,25 103,37 78,55 76,193 -3,251 -14,10 -59,28 -100,38 -146,39 -240,103 -311,213 -74,115 -72,91 -78,771 -6,594 -6,612 -27,668 -43,113 -86,181 -168,262 -137,138 -262,185 -484,185 -83,-1 -136,-5 -156,-14 z"
       id="path2" />
    <path
       d="m 3708,6850 c -26,-16 -31,-64 -18,-195 24,-267 94,-478 220,-666 94,-141 289,-304 470,-394 105,-53 289,-111 426,-135 146,-25 158,-25 150,-2 -41,107 -309,449 -548,696 -58,61 -102,112 -97,114 12,5 133,-81 227,-161 163,-139 342,-365 407,-511 48,-110 56,-177 62,-547 8,-475 -13,-752 -66,-875 -32,-75 -81,-115 -226,-188 -149,-74 -230,-136 -297,-223 -65,-86 -90,-159 -91,-258 0,-62 5,-89 21,-121 57,-112 217,-193 459,-230 164,-25 501,-22 655,5 272,48 428,151 447,297 18,129 -36,254 -166,381 -61,60 -93,82 -198,133 -68,34 -142,75 -164,90 -45,33 -86,97 -107,167 -60,198 -69,1085 -14,1283 45,160 153,322 340,511 108,109 316,277 328,265 3,-3 -42,-54 -99,-113 -211,-219 -453,-528 -538,-688 l -21,-40 25,-3 c 40,-5 230,36 345,74 553,184 860,591 896,1186 6,91 4,111 -10,133 -15,22 -23,25 -79,25 -34,0 -109,-7 -167,-14 -404,-54 -708,-228 -903,-515 -105,-156 -199,-393 -242,-614 -10,-48 -19,-86 -21,-85 -1,2 -12,48 -23,103 -80,390 -269,701 -544,893 -130,91 -343,175 -522,206 -121,21 -295,30 -317,16 z"
       id="path3" />
  </g>
</svg>
